inDegrees=yes
name=IK-live
DataType=double
version=3
OpenSimVersion=4.1
endheader
time	pelvis_tilt	pelvis_list	pelvis_rotation	pelvis_tx	pelvis_ty	pelvis_tz	hip_flexion_r	hip_adduction_r	hip_rotation_r	knee_angle_r	ankle_angle_r	subtalar_angle_r	mtp_angle_r	hip_flexion_l	hip_adduction_l	hip_rotation_l	knee_angle_l	ankle_angle_l	subtalar_angle_l	mtp_angle_l	lumbar_extension	lumbar_bending	lumbar_rotation	neck_flex	neck_latbend	neck_rot	arm_flex_r	arm_add_r	arm_rot_r	elbow_flex_r	pro_sup_r	wrist_flex_r	wrist_dev_r	arm_flex_l	arm_add_l	arm_rot_l	elbow_flex_l	pro_sup_l	wrist_flex_l	wrist_dev_l
30.5983937	18.75183477720223	-16.3714953235782	-32.05070448103558	0.2341366603171506	0.04326292228651554	-1.326684523481465	-22.57117169827992	-1.591976316804377	-3.241458145969817	5.899560354604904	2.451982624139334	1.987972377786656	0	-24.74788768789517	-3.395140484746916	-11.58000132048591	9.793848132074926	-0.4439473045988533	4.250290820099795	0	-21.37711699760957	1.659277491615732	3.206407148933037	0	0	0	0.782087523735965	-15.17649429639702	33.30895214248153	7.040408121716974	24.88035929461842	0	0.01522376770344294	5.872896251429719	-13.22987466310883	43.89524505448205	6.855919809316869	33.48316221204073	0	0.01522376770344294
30.7513232	18.78743597582268	-16.48550948285237	-31.80918713921709	0.2341366603171506	0.04326292228651554	-1.326684523481465	-22.57117169827992	-1.591976316804377	-3.241458145969817	5.899560354604904	2.451982624139334	1.987972377786656	0	-24.74788768789517	-3.395140484746916	-11.58000132048591	9.793848132074926	-0.4439473045988533	4.250290820099795	0	-21.37711699760957	1.659277491615732	3.206407148933037	0	0	0	0.7821163494317285	-15.17649417006209	33.30891458313427	7.04092183293431	24.88045653762018	0	0.01526823138583933	5.87292248683559	-13.22987593052321	43.89518904223208	6.856447391343786	33.48320996417127	0	0.01526823138583933
30.9142608	18.7927158774428	-16.53307903362359	-31.95202582836065	0.2341366603171506	0.04326292228651554	-1.326684523481465	-22.57117169827992	-1.591976316804377	-3.241458145969817	5.899560354604904	2.451982624139334	1.987972377786656	0	-24.74788768789517	-3.395140484746916	-11.58000132048591	9.793848132074926	-0.4439473045988533	4.250290820099795	0	-21.37711699760957	1.659277491615732	3.206407148933037	0	0	0	0.7821192146656444	-15.17649415757036	33.30891089519938	7.04096881690643	24.88046586481957	0	0.01527245976778046	5.87292509634577	-13.22987605584169	43.8951835598149	6.856495567559326	33.48321456944917	0	0.01527245976778046
31.0741074	18.81938585175656	-16.59097968997705	-32.05401098799606	0.2341366603171506	0.04326292228651554	-1.326684523481465	-22.57117169827992	-1.591976316804377	-3.241458145969817	5.899560354604904	2.451982624139334	1.987972377786656	0	-24.74788768789517	-3.395140484746916	-11.58000132048591	9.793848132074926	-0.4439473045988533	4.250290820099795	0	-21.37711699760957	1.659277491615732	3.206407148933037	0	0	0	0.7821255457731175	-15.17649412990152	33.30890270031358	7.041076594868872	24.88048681367987	0	0.01528199407865671	5.872930860624722	-13.22987633341937	43.89517135976831	6.856606156010936	33.48322488725796	0	0.01528199407865671
31.2269791	18.96474595568046	-16.6029458212527	-32.06679136978271	0.2341366603171506	0.04326292228651554	-1.326684523481465	-22.57117169827992	-1.591976316804377	-3.241458145969817	5.899560354604904	2.451982624139334	1.987972377786656	0	-24.74788768789517	-3.395140484746916	-11.58000132048591	9.793848132074926	-0.4439473045988533	4.250290820099795	0	-21.37711699760957	1.659277491615732	3.206407148933037	0	0	0	0.78212830603019	-15.17649411796066	33.30889921305299	7.041114614962258	24.88049528376995	0	0.01528577289202762	5.872933376991985	-13.22987645321048	43.89516620219241	6.856644951622951	33.48322911212894	0	0.01528577289202762
31.386982	19.05934537899266	-16.54108297056651	-32.01101240289714	0.2341366603171506	0.04326292228651554	-1.326684523481465	-22.57117169827992	-1.591976316804377	-3.241458145969817	5.899560354604904	2.451982624139334	1.987972377786656	0	-24.74788768789517	-3.395140484746916	-11.58000132048591	9.793848132074926	-0.4439473045988533	4.250290820099795	0	-21.37711699760957	1.659277491615732	3.206407148933037	0	0	0	0.7821204738015909	-15.17649415234386	33.30890945835789	7.040970450406054	24.88046854410658	0	0.01527350964660957	5.872926250071284	-13.22987610827142	43.89518149715208	6.856496777876162	33.48321600723533	0	0.01527350964660957
